<svg width="24" height="24" viewBox="0 0 24 24" fill="none" xmlns="http://www.w3.org/2000/svg">
<path fill-rule="evenodd" clip-rule="evenodd" d="M4.43005 8.51206C4.49418 8.43723 4.57242 8.37578 4.66031 8.33121C4.7482 8.28664 4.84401 8.25983 4.94227 8.25231C5.04052 8.24479 5.1393 8.2567 5.23295 8.28737C5.3266 8.31804 5.41328 8.36687 5.48805 8.43106L12.0001 14.0121L18.5121 8.43106C18.6639 8.30919 18.8571 8.25113 19.051 8.26916C19.2449 8.28719 19.4241 8.3799 19.5508 8.52768C19.6776 8.67546 19.7419 8.86674 19.7302 9.06107C19.7185 9.25541 19.6316 9.43757 19.4881 9.56906L12.4881 15.5691C12.3521 15.6855 12.179 15.7495 12.0001 15.7495C11.8211 15.7495 11.648 15.6855 11.5121 15.5691L4.51205 9.56906C4.36124 9.43957 4.26799 9.25551 4.2528 9.05732C4.23762 8.85913 4.30173 8.66301 4.43105 8.51206H4.43005Z" fill="#2C4246"/>
</svg>
