<svg width="32" height="32" viewBox="0 0 32 32" fill="none" xmlns="http://www.w3.org/2000/svg">
<path d="M16 11.6665C14.8507 11.6665 13.7485 12.1231 12.9358 12.9357C12.1232 13.7484 11.6666 14.8506 11.6666 15.9998C11.6666 17.1491 12.1232 18.2513 12.9358 19.064C13.7485 19.8766 14.8507 20.3332 16 20.3332C17.1492 20.3332 18.2514 19.8766 19.0641 19.064C19.8767 18.2513 20.3333 17.1491 20.3333 15.9998C20.3333 14.8506 19.8767 13.7484 19.0641 12.9357C18.2514 12.1231 17.1492 11.6665 16 11.6665Z" fill="#05BCCA"/>
<path fill-rule="evenodd" clip-rule="evenodd" d="M9.17249 4.37662C13.7103 3.87446 18.2898 3.87446 22.8276 4.37662C25.3066 4.65291 27.3053 6.60132 27.5964 9.08538C28.1345 13.679 28.1345 18.3196 27.5964 22.9132C27.3053 25.3973 25.3066 27.3457 22.8289 27.6233C18.2906 28.1256 13.7107 28.1256 9.17249 27.6233C6.69342 27.3457 4.69477 25.3973 4.40365 22.9145C3.86545 18.3205 3.86545 13.6794 4.40365 9.08538C4.69477 6.60132 6.69342 4.65291 9.17249 4.37662ZM22.5273 8.1796C22.1811 8.1796 21.849 8.31691 21.6042 8.56132C21.3594 8.80573 21.2219 9.13723 21.2219 9.48288C21.2219 9.82853 21.3594 10.16 21.6042 10.4044C21.849 10.6489 22.1811 10.7862 22.5273 10.7862C22.8735 10.7862 23.2056 10.6489 23.4504 10.4044C23.6952 10.16 23.8328 9.82853 23.8328 9.48288C23.8328 9.13723 23.6952 8.80573 23.4504 8.56132C23.2056 8.31691 22.8735 8.1796 22.5273 8.1796ZM9.79911 15.9993C9.79911 14.3574 10.4524 12.7828 11.6153 11.6219C12.7782 10.4609 14.3554 9.8087 16 9.8087C17.6446 9.8087 19.2218 10.4609 20.3847 11.6219C21.5476 12.7828 22.201 14.3574 22.201 15.9993C22.201 17.6411 21.5476 19.2157 20.3847 20.3767C19.2218 21.5377 17.6446 22.1899 16 22.1899C14.3554 22.1899 12.7782 21.5377 11.6153 20.3767C10.4524 19.2157 9.79911 17.6411 9.79911 15.9993Z" fill="#05BCCA"/>
</svg>
