<svg width="32" height="32" viewBox="0 0 32 32" fill="none" xmlns="http://www.w3.org/2000/svg">
<path d="M16 11.6667C14.8507 11.6667 13.7485 12.1232 12.9358 12.9359C12.1232 13.7485 11.6666 14.8507 11.6666 16C11.6666 17.1493 12.1232 18.2515 12.9358 19.0641C13.7485 19.8768 14.8507 20.3333 16 20.3333C17.1492 20.3333 18.2514 19.8768 19.0641 19.0641C19.8767 18.2515 20.3333 17.1493 20.3333 16C20.3333 14.8507 19.8767 13.7485 19.0641 12.9359C18.2514 12.1232 17.1492 11.6667 16 11.6667Z" fill="#D9D9D9"/>
<path fill-rule="evenodd" clip-rule="evenodd" d="M9.17249 4.37652C13.7103 3.87437 18.2898 3.87437 22.8276 4.37652C25.3066 4.65282 27.3053 6.60123 27.5964 9.08529C28.1345 13.6789 28.1345 18.3195 27.5964 22.9131C27.3053 25.3972 25.3066 27.3456 22.8289 27.6232C18.2906 28.1255 13.7107 28.1255 9.17249 27.6232C6.69342 27.3456 4.69477 25.3972 4.40365 22.9144C3.86545 18.3204 3.86545 13.6793 4.40365 9.08529C4.69477 6.60123 6.69342 4.65282 9.17249 4.37652ZM22.5273 8.1795C22.1811 8.1795 21.849 8.31681 21.6042 8.56123C21.3594 8.80564 21.2219 9.13714 21.2219 9.48279C21.2219 9.82844 21.3594 10.1599 21.6042 10.4043C21.849 10.6488 22.1811 10.7861 22.5273 10.7861C22.8735 10.7861 23.2056 10.6488 23.4504 10.4043C23.6952 10.1599 23.8328 9.82844 23.8328 9.48279C23.8328 9.13714 23.6952 8.80564 23.4504 8.56123C23.2056 8.31681 22.8735 8.1795 22.5273 8.1795ZM9.79911 15.9992C9.79911 14.3574 10.4524 12.7828 11.6153 11.6218C12.7782 10.4608 14.3554 9.80861 16 9.80861C17.6446 9.80861 19.2218 10.4608 20.3847 11.6218C21.5476 12.7828 22.201 14.3574 22.201 15.9992C22.201 17.6411 21.5476 19.2157 20.3847 20.3766C19.2218 21.5376 17.6446 22.1898 16 22.1898C14.3554 22.1898 12.7782 21.5376 11.6153 20.3766C10.4524 19.2157 9.79911 17.6411 9.79911 15.9992Z" fill="#D9D9D9"/>
</svg>
